<?xml version="1.0" encoding="UTF-8"?>
<svg width="160px" height="43px" viewBox="0 0 160 43" version="1.1" xmlns="http://www.w3.org/2000/svg" xmlns:xlink="http://www.w3.org/1999/xlink">
    <title>反白logo</title>
    <g id="登录" stroke="none" stroke-width="1" fill="none" fill-rule="evenodd">
        <g transform="translate(-580.000000, -273.000000)" fill="#FFFFFF" fill-rule="nonzero" id="编组-6">
            <g transform="translate(532.000000, 238.000000)">
                <g id="编组-17" transform="translate(0.000000, -142.000000)">
                    <g id="反白logo" transform="translate(48.000000, 177.000000)">
                        <path d="M149.691769,10.8160108 C149.246925,10.2259883 148.837284,9.61351927 148.462846,9.02029009 L147.688369,9.02029009 L148.779678,10.8160108 L149.691769,10.8160108 Z" id="路径"></path>
                        <path d="M144.180818,13.7917766 L144.888089,13.7917766 C145.041704,12.6566246 145.230523,10.7935643 145.265727,9.84760429 L144.644864,9.84760429 C144.561922,11.1698093 144.40701,12.4864921 144.180818,13.7917766 Z" id="路径"></path>
                        <path d="M149.691769,8.7381054 C149.317332,8.24107556 148.933293,7.67670618 148.536454,7.0610305 L147.761976,7.0610305 L148.779678,8.7381054 L149.691769,8.7381054 Z" id="路径"></path>
                        <path d="M147.214721,9.30568142 L147.214721,8.59701306 L146.222622,8.59701306 L146.222622,7.49392746 L146.965097,7.37848827 L146.926693,6.65058004 C146.069007,6.76601923 145.249725,6.84939198 144.468847,6.91352486 L144.507251,7.66067296 C144.891289,7.64143309 145.281728,7.62219323 145.492949,7.60295336 L145.492949,8.59380642 L144.408041,8.59380642 L144.408041,9.30247478 L145.473747,9.30247478 L145.492949,10.5851325 L145.492949,13.7917766 L146.222622,13.7917766 L146.222622,9.3473678 L146.222622,9.30568142 L147.214721,9.30568142 Z" id="路径"></path>
                        <polygon id="路径" points="151.605561 11.0052028 150.79588 11.0949889 150.79588 6.66019997 149.992599 6.66019997 149.992599 11.2360812 147.627563 11.5631589 147.662766 12.310307 149.992599 11.9511629 149.992599 13.7917766 150.79588 13.7917766 150.79588 11.8453436 151.634363 11.7202845"></polygon>
                        <path d="M146.433843,9.84760429 L146.865887,13.7917766 L147.573157,13.7917766 C147.454745,13.0606618 147.217922,11.2264613 147.054705,9.84760429 L146.433843,9.84760429 Z" id="路径"></path>
                        <path d="M131.936394,13.7981899 L130.531453,13.7981899 L129.840184,13.3075734 L129.084908,13.7981899 L127.644764,13.7981899 C128.161194,13.5438622 128.658547,13.2523628 129.132913,12.9259827 L128.054405,12.3808532 L128.675268,11.6176719 L127.79838,11.6176719 L127.79838,11.0436826 L129.110511,11.0436826 L129.430543,10.5274129 L130.451445,10.5274129 L130.157016,11.0436826 L131.385939,11.0436826 C131.471394,11.0366185 131.556105,11.06421 131.62108,11.1202718 C131.686056,11.1763335 131.725861,11.256176 131.731573,11.3419005 C131.698182,11.5375473 131.606732,11.718574 131.469147,11.8613768 C131.143283,12.2212932 130.792512,12.5577552 130.419442,12.8682631 C130.822682,13.0895216 131.440344,13.5641049 131.936394,13.7981899 Z M128.790479,10.4376268 L127.862386,10.4376268 C128.075437,10.0211391 128.238714,9.58092535 128.348835,9.12610935 L129.206521,9.12610935 C129.106683,9.57471194 128.967461,10.0135928 128.790479,10.4376268 L128.790479,10.4376268 Z M131.840384,8.09677657 L131.821182,8.87919775 L130.320232,8.87919775 L130.320232,10.3574607 L129.430543,10.3574607 L129.430543,8.87919775 L127.769577,8.87919775 L127.769577,8.09677657 L129.417742,8.09677657 L129.417742,6.66661326 L130.310631,6.66661326 L130.310631,8.09677657 L131.840384,8.09677657 Z M128.851285,6.85259862 C128.938966,7.20064705 129.061187,7.53903051 129.216122,7.86269154 L128.358436,7.86269154 L128.038404,6.85259862 L128.851285,6.85259862 Z M129.212921,12.2846539 L129.69617,12.5315655 C130.020338,12.2752087 130.330171,12.0011602 130.624262,11.7106646 C130.643561,11.6995882 130.654772,11.6783701 130.653065,11.6561516 C130.653065,11.6401184 130.653065,11.6304985 130.617862,11.6304985 L129.737774,11.6304985 L129.212921,12.2846539 Z M130.813081,10.4504534 C130.649865,9.88608402 130.557056,9.53655981 130.473847,9.13893593 L131.29633,9.13893593 C131.414211,9.58548111 131.561755,10.0236305 131.737974,10.4504534 L130.813081,10.4504534 Z M130.848285,6.85259862 L131.705971,6.85259862 C131.628786,7.2003483 131.515075,7.53893298 131.366737,7.86269154 L130.473847,7.86269154 C130.626718,7.53711444 130.751972,7.19922453 130.848285,6.85259862 L130.848285,6.85259862 Z M134.986299,8.91767748 L134.368637,8.91767748 C134.26234,9.91352366 133.976047,10.8816718 133.523752,11.7747974 L135.021502,13.8238431 L133.971797,13.8238431 C133.754175,13.5031787 133.446945,13.0670751 133.130113,12.5411854 C132.771677,13.1632744 132.514585,13.5908269 132.358836,13.8238431 L131.238724,13.8238431 C131.839046,13.2149046 132.336283,12.5119824 132.710871,11.742731 C132.427075,11.2436288 132.178962,10.7249893 131.968397,10.1907152 L132.755676,10.1907152 C132.838884,10.3959404 132.944494,10.6460587 133.075708,10.9346567 C133.204017,10.6008604 133.310912,10.2591913 133.39574,9.91173718 C133.456546,9.55900632 133.50135,9.22551532 133.530153,8.91767748 L132.653265,8.91767748 L132.224422,10.0047299 L131.264326,10.0047299 C131.743404,8.91926365 132.146551,7.80172356 132.470847,6.66019997 L133.331733,6.66019997 L132.89649,8.17052938 L134.986299,8.17052938 L134.986299,8.91767748 Z" id="形状"></path>
                        <rect id="矩形" x="129.414541" y="6.65378668" width="1" height="3.70367403"></rect>
                        <path d="M157.974197,12.1692147 C158.452983,11.6868252 158.881873,11.157174 159.254325,10.5883391 C159.33734,10.4675994 159.395043,10.3312386 159.423942,10.1875086 C159.443954,10.064329 159.443954,9.93871745 159.423942,9.81553785 C159.414133,9.72113177 159.357613,9.63799153 159.273527,9.5942794 C159.182453,9.57144427 159.08898,9.55960252 158.9951,9.55900632 L157.807781,9.55900632 L157.807781,8.53929346 L159.407941,8.53929346 L159.407941,7.81459188 L157.807781,7.81459188 L157.807781,6.67623319 L157.026903,6.67623319 L157.026903,7.81459188 L155.481148,7.81459188 L155.481148,8.52646689 L157.026903,8.52646689 L157.026903,9.54617974 L155.519552,9.54617974 L155.519552,10.2356082 L158.211021,10.2356082 C158.234798,10.2498503 158.252038,10.2728826 158.259026,10.2997411 C158.067424,10.7448861 157.815421,11.1614042 157.510151,11.5375058 L156.690869,10.5434461 L155.641164,10.5434461 L156.90209,12.1243217 C156.297174,12.7617169 155.616877,13.3227521 154.876288,13.7949833 L156.278028,13.7949833 L157.468547,12.7399973 L158.339034,13.7949833 L159.740774,13.7949833 C159.142314,13.2851269 158.534253,12.7239641 157.974197,12.1692147 Z" id="路径"></path>
                        <path d="M154.39944,12.9965289 L154.39944,10.9282434 L155.180318,10.6909517 L155.180318,9.91173718 L154.393039,10.1426156 L154.393039,8.85995788 L155.247525,8.85995788 L155.247525,8.1352563 L154.393039,8.1352563 L154.393039,6.66340662 L153.564156,6.66340662 L153.564156,8.1352563 L152.735274,8.1352563 L152.735274,8.84713131 L153.564156,8.84713131 L153.564156,10.3799072 L152.476048,10.7005716 L152.476048,11.5118526 L153.564156,11.1655351 L153.564156,13.0895216 L152.661666,13.0895216 L153.023302,13.8013966 L154.028203,13.8013966 C154.129367,13.8067572 154.228202,13.7697298 154.30104,13.6991808 C154.373877,13.6286318 154.41416,13.5309138 154.412241,13.4294258 L154.412241,13.0895216 L154.39944,12.9965289 Z" id="路径"></path>
                        <polygon id="路径" points="136.090409 8.62266621 136.356036 9.28323492 137.258526 9.20627545 137.258526 9.79950463 136.391239 9.79950463 136.394439 10.4408335 137.242524 10.4408335 137.968997 10.4408335 138.061806 10.4408335 138.061806 9.08762962 138.890689 8.99784358 138.890689 8.34368817 138.061806 8.46554065 138.061806 8.3821679 138.065007 7.89796463 138.893889 7.89796463 138.890689 7.28228894 138.061806 7.28228894 138.061806 6.66661326 138.061806 6.66661326 137.242524 6.66661326 137.258526 6.66661326 137.258526 7.28228894 136.19602 7.28228894 136.19922 7.89796463 137.258526 7.89796463 137.258526 8.55532669"></polygon>
                        <path d="M142.436644,9.79950463 L142.551855,7.8017653 C142.563255,7.64912123 142.536872,7.4960179 142.475048,7.35604176 C142.349614,7.27277199 142.198913,7.2364413 142.049405,7.25342915 L141.127713,7.25342915 C141.143291,7.05706469 141.143291,6.85977108 141.127713,6.66340662 L140.270027,6.66340662 C140.281253,6.85991998 140.281253,7.05691578 140.270027,7.25342915 L139.252325,7.25342915 L139.252325,7.89475798 L140.174017,7.89475798 C140.151183,8.1037318 140.093864,8.30745388 140.0044,8.49760709 L139.783578,8.2154224 L138.989899,8.2154224 L139.655566,9.09083626 C139.298296,9.57433948 138.898816,10.0250454 138.461846,10.4376268 L139.639564,10.4376268 C139.847585,10.1971285 140.046005,9.97266342 140.231623,9.72254517 C140.374838,9.90061557 140.531014,10.067818 140.69887,10.2227817 L141.591759,10.2227817 L141.591759,10.4376268 L142.961496,10.4376268 L142.961496,9.79629799 L142.436644,9.79950463 Z M141.719772,8.09036328 L141.617362,10.1233757 C141.265327,9.80271127 140.932493,9.50128672 140.625263,9.18703559 C140.818565,8.77953158 140.957376,8.3482592 141.038104,7.90437792 L141.610961,7.90437792 C141.694169,7.89796463 141.732573,8.01019717 141.719772,8.09036328 Z" id="形状"></path>
                        <path d="M142.644664,13.1921342 C142.663866,12.7592372 142.683068,12.2301409 142.69907,11.6240852 C142.713509,11.4830687 142.675943,11.3416326 142.593459,11.2264613 C142.483236,11.1338351 142.339211,11.0919386 142.19662,11.1110221 L139.412341,11.1110221 C139.442799,10.9245425 139.454592,10.735481 139.447545,10.5466527 L138.522652,10.5466527 C138.531299,10.7354977 138.519496,10.9247255 138.487449,11.1110221 L136.020002,11.1110221 L136.020002,11.7812107 L138.292229,11.7812107 C138.016819,12.2054743 137.667809,12.5768937 137.261726,12.877883 C136.833154,13.241472 136.365094,13.5555632 135.866387,13.8142231 L137.30013,13.8142231 C137.608778,13.6208299 137.903893,13.4065558 138.183418,13.1728943 C138.444036,12.9338504 138.682872,12.6720074 138.89709,12.3904731 C139.050464,12.2110735 139.1786,12.0114768 139.277928,11.797244 L141.633363,11.797244 C141.719772,11.797244 141.754975,11.8357237 141.742174,11.9190964 L141.681368,13.1344146 L139.706771,13.1344146 L140.0044,13.8302564 L142.065407,13.8302564 C142.526253,13.8110165 142.628663,13.5031787 142.644664,13.1921342 Z" id="路径"></path>
                        <path d="M61.0781078,29.3921006 L61.0781078,13.7821567 L63.990399,13.7821567 C65.9852652,13.7821567 67.4488782,13.9446267 68.3812381,14.2695666 C69.2959647,14.5869138 70.1228163,15.1165292 70.7942794,15.8151691 C71.492258,16.5488862 72.0258084,17.4234952 72.3592359,18.3804845 C72.7447283,19.5254398 72.9298701,20.7285278 72.9064906,21.9366529 C72.9146177,23.2629598 72.6236132,24.5739718 72.0552055,25.7717993 C71.564768,26.8793647 70.7629658,27.8198063 69.7477748,28.478207 C68.7791446,29.0874694 67.3816715,29.3921006 65.5553555,29.3921006 L61.0781078,29.3921006 Z M62.4254425,27.9138376 L64.0480048,27.9138376 C65.2803118,27.9535869 66.5132793,27.8589693 67.7251725,27.6316529 C68.481408,27.4462884 69.1736031,27.0596216 69.7285729,26.5125341 C70.3105909,25.9410306 70.7577978,25.2464353 71.0375038,24.4795217 C71.3517631,23.6014992 71.5046475,22.6736887 71.4887489,21.7410476 C71.4989696,20.7663774 71.3229889,19.7987479 70.970297,18.8903409 C70.6554604,18.0662024 70.149807,17.3287535 69.4949495,16.7386826 C68.8510959,16.1716142 68.0733852,15.7786792 67.2355236,15.5971173 C65.9753027,15.367436 64.6948032,15.2685761 63.4143414,15.3021061 L62.4158416,15.3021061 L62.4254425,27.9138376 Z" id="形状"></path>
                        <path d="M65.5553555,29.7320049 L60.7548755,29.7320049 L60.7548755,13.4422524 L63.9967997,13.4422524 C66.0450045,13.4422524 67.5171517,13.6057913 68.4772477,13.9489022 C69.4407883,14.2815899 70.3117012,14.8388008 71.0183018,15.5746708 C71.7497392,16.3465679 72.3083657,17.2659689 72.6568657,18.2714586 C73.0560728,19.4545013 73.2487795,20.6976377 73.2265227,21.9462728 C73.2321109,23.3211442 72.930294,24.6798129 72.3432343,25.9225116 C71.8238696,27.0870637 70.9791135,28.0760451 69.9109911,28.7700116 C68.8964896,29.4081338 67.4307431,29.7320049 65.5553555,29.7320049 Z M61.3949395,29.0521963 L65.5553555,29.0521963 C67.3091309,29.0521963 68.6628663,28.7635983 69.5781578,28.189609 C70.5372346,27.5631364 71.2951819,26.6722917 71.7607761,25.6242937 C72.3058418,24.4765508 72.585867,23.220523 72.580058,21.9494794 C72.6014221,20.7818198 72.422817,19.6191343 72.0520052,18.5119569 C71.7352588,17.5977398 71.2279746,16.7615263 70.5638564,16.0588741 C69.9265126,15.3979162 69.142536,14.8969375 68.2756276,14.5966443 C67.379538,14.2759799 65.9393939,14.1252676 63.990399,14.1252676 L61.4045405,14.1252676 L61.3949395,29.0521963 Z M64.0384038,28.2537419 L62.0894089,28.2537419 L62.0894089,14.9622018 L63.4143414,14.9622018 C64.7185656,14.9284622 66.02276,15.0305538 67.3059306,15.266833 C68.1960482,15.4592619 69.0222884,15.8765099 69.7061706,16.4789445 C70.4006794,17.1052759 70.9370121,17.887737 71.2711271,18.7620751 C71.639723,19.7114134 71.8243686,20.7224412 71.8151815,21.7410476 C71.8295698,22.7149495 71.670253,23.683599 71.3447345,24.6013742 C71.0456031,25.4149975 70.5701464,26.1520427 69.9525953,26.7594457 C69.3552478,27.3465222 68.6113369,27.7618534 67.7987799,27.9619373 C66.5629562,28.1965178 65.3051551,28.2943728 64.0480048,28.2537419 L64.0384038,28.2537419 Z M62.7422742,27.5739333 L64.0384038,27.5739333 C65.2479754,27.612032 66.4581505,27.5206595 67.6483648,27.3013686 C68.3495341,27.129757 68.9910684,26.7706745 69.5045505,26.2624159 C70.051277,25.7263866 70.471202,25.0744358 70.7334733,24.3544626 C71.3266703,22.6227285 71.3040575,20.7387523 70.6694669,19.0218133 C70.3723474,18.2469689 69.8963915,17.5536009 69.2805281,16.9984208 C68.6771365,16.4679041 67.9493045,16.0994075 67.1651165,15.9274017 C65.9278045,15.70466 64.671034,15.609034 63.4143414,15.6420103 L62.7422742,15.6420103 L62.7422742,27.5739333 Z" id="形状"></path>
                        <path d="M75.3675368,14.6287108 C75.3624602,14.3092139 75.4765857,13.9993227 75.6875688,13.7597102 C75.8786408,13.5245732 76.1658315,13.3889495 76.4684468,13.3909461 C76.7693911,13.3879917 77.0563033,13.5182374 77.2525253,13.7468836 C77.6840675,14.2467536 77.6840675,14.9882215 77.2525253,15.4880914 C77.0577337,15.719024 76.7701939,15.8507305 76.4684468,15.8472356 C76.1658315,15.8492322 75.8786408,15.7136084 75.6875688,15.4784715 C75.4789195,15.2450836 75.3647853,14.9420302 75.3675368,14.6287108 Z M75.79958,17.835355 L77.1469147,17.835355 L77.1469147,29.379274 L75.79958,29.379274 L75.79958,17.835355 Z" id="形状"></path>
                        <path d="M77.4733473,29.7320049 L75.469947,29.7320049 L75.469947,17.5082772 L77.4733473,17.5082772 L77.4733473,29.7320049 Z M76.1260126,29.0521963 L76.820482,29.0521963 L76.820482,18.1880858 L76.1260126,18.1880858 L76.1260126,29.0521963 Z M76.4716472,16.1871398 C76.0755984,16.1886425 75.6997491,16.012115 75.4475448,15.7061432 C75.1835465,15.4098414 75.0387123,15.0259007 75.0411041,14.6287108 C75.0360823,14.2252853 75.180949,13.8344008 75.4475448,13.5320385 C75.7011683,13.2311272 76.0732968,13.0562006 76.4663696,13.0531188 C76.8594424,13.050037 77.2342572,13.2191075 77.4925493,13.5160052 C78.0427722,14.1468493 78.0427722,15.0881258 77.4925493,15.7189698 C77.2383209,16.018924 76.8643804,16.1904074 76.4716472,16.1871398 L76.4716472,16.1871398 Z M76.4716472,13.7308504 C76.2623367,13.7277959 76.0635581,13.8226394 75.9339934,13.9873819 C75.7765696,14.1634465 75.6909026,14.3923433 75.6939694,14.6287108 C75.6930806,14.8579784 75.7788338,15.0790859 75.9339934,15.2475931 C76.0658234,15.4115931 76.2646829,15.5069542 76.4748475,15.5069542 C76.6850121,15.5069542 76.8838716,15.4115931 77.0157016,15.2475931 C77.3304823,14.8782082 77.3304823,14.3343204 77.0157016,13.9649354 C76.8782957,13.809474 76.6787738,13.7236276 76.4716472,13.7308504 L76.4716472,13.7308504 Z" id="形状"></path>
                        <path d="M90.0250025,17.8481815 L91.3723372,17.8481815 L91.3723372,26.7626524 C91.3723372,28.3403213 91.2485915,29.5000576 91.0011001,30.2418613 C90.7837255,30.9297854 90.4164285,31.5606816 89.9257926,32.0888884 C89.4498311,32.5874573 88.8694396,32.9740545 88.2264226,33.2208338 C87.5265224,33.4874284 86.7829276,33.620126 86.0342034,33.6120443 C83.3245991,33.6120443 81.5398873,32.4084839 80.680068,30.001363 L82.1266127,30.001363 C82.8818882,31.5084858 84.1620162,32.2620471 85.9669967,32.2620471 C86.7630972,32.2801559 87.549631,32.0853476 88.2456246,31.6976778 C88.8423486,31.3715727 89.3215515,30.8656204 89.6153615,30.2514812 C89.8799213,29.6635965 90.013268,28.7464962 90.0154015,27.5001805 L90.0154015,26.999944 C89.5280702,27.6993235 88.8762624,28.267616 88.1176118,28.6545724 C87.4013468,29.0135282 86.6110368,29.1991403 85.810181,29.1964953 C84.3576869,29.2251591 82.9703726,28.5932085 82.0370037,27.477734 C79.9936918,25.1147561 80.0363062,21.5941798 82.1362136,19.2815515 C83.115582,18.1630383 84.5332528,17.5283343 86.0182018,17.5435503 C87.5351535,17.5435503 88.8675534,18.3120761 90.0154015,19.8491275 L90.0250025,17.8481815 Z M90.0826083,23.4341557 C90.1167042,22.2674627 89.7045557,21.1318144 88.930493,20.259578 C88.2147833,19.4304466 87.1697613,18.9609009 86.0758076,18.9769203 C84.9203095,18.9567122 83.8186726,19.4655291 83.0835084,20.3589839 C82.3076211,21.2291177 81.8821727,22.3571267 81.889789,23.5239417 C81.8649648,24.6464835 82.2796528,25.7341691 83.0451045,26.5542205 C83.8210978,27.3441418 84.8791063,27.7918931 85.9852884,27.7985864 C87.0914705,27.8051309 88.1547406,27.3700725 88.940094,26.5894936 C89.7197141,25.7288664 90.1301088,24.5954593 90.0826083,23.4341557 L90.0826083,23.4341557 Z" id="形状"></path>
                        <path d="M86.0342034,33.9520222 C83.1859186,33.9520222 81.2817282,32.669291 80.3728373,30.1200088 L80.209621,29.6614587 L82.3250325,29.6614587 L82.4146415,29.8442374 C83.1155116,31.2423343 84.280428,31.9221429 85.9765977,31.9221429 C86.7162247,31.9397663 87.4472837,31.7605131 88.0952095,31.4026665 C88.6293645,31.1143204 89.0601715,30.6658442 89.3273327,30.1200088 C89.5856825,29.4184306 89.709464,28.6742739 89.6921692,27.9266642 C89.2806335,28.3541839 88.7989286,28.7077707 88.2680268,28.9720302 C87.5081402,29.3533878 86.6696553,29.5510682 85.819782,29.5492262 C84.2718256,29.5681019 82.7977324,28.8873128 81.8065807,27.6957858 C79.6497179,25.1994643 79.6936869,21.4822474 81.9089909,19.0378465 C82.9488923,17.852191 84.4525531,17.1790647 86.0278028,17.1940261 C87.3879388,17.1940261 88.620062,17.7744287 89.6985699,18.9288206 L89.6985699,17.4986573 L91.7019702,17.4986573 L91.7019702,26.7530324 C91.7019702,28.3852143 91.5739574,29.5588461 91.3115312,30.3412673 C91.0782783,31.0770866 90.6847557,31.7517782 90.1594159,32.3165601 C89.6498992,32.8497139 89.0292046,33.2635981 88.3416342,33.5286716 C87.6054241,33.8122072 86.8229153,33.9557512 86.0342034,33.9520222 L86.0342034,33.9520222 Z M81.1665167,30.3412673 C82.0338034,32.3101468 83.6307631,33.2721401 86.0342034,33.2721401 C86.7436982,33.2798078 87.448296,33.1536215 88.1112111,32.9001693 C88.7106759,32.6718235 89.2518378,32.3125268 89.6953695,31.84839 C90.1504436,31.3561215 90.4913965,30.7692244 90.6938694,30.1296288 C90.9274927,29.4305803 91.0459046,28.2954283 91.0459046,26.7626524 L91.0459046,18.1880858 L90.3514351,18.1880858 L90.3514351,20.8399806 L89.7657766,20.0575594 C88.6744674,18.592123 87.4519452,17.8834546 86.0278028,17.8834546 C84.6312864,17.8622196 83.2968897,18.4608913 82.3826383,19.5188432 C80.4009392,21.7000247 80.3610636,25.021752 82.289829,27.2500623 C83.1608557,28.290499 84.4551064,28.8799573 85.810181,28.8533844 C87.3839827,28.8621299 88.8601763,28.090159 89.7529753,26.7915122 L90.3418342,25.9802312 L90.3418342,27.4969739 C90.3418342,28.8084914 90.2010201,29.7416248 89.909791,30.3829537 C89.5885464,31.0621694 89.0623693,31.6230384 88.4056406,31.9862757 C87.6617032,32.4040693 86.8196103,32.6144549 85.9669967,32.5955381 C84.1076108,32.5955381 82.7474747,31.8355635 81.9217922,30.334854 L81.1665167,30.3412673 Z M85.9957996,28.144716 C84.7831352,28.1827858 83.6143012,27.6885631 82.7954795,26.7915122 C81.9784873,25.9042503 81.536804,24.734063 81.5633563,23.5271484 C81.5579192,22.2767919 82.0138294,21.0685266 82.8434843,20.1345188 C83.6400888,19.1706446 84.8301669,18.6210182 86.0790079,18.6402226 C87.2641362,18.6235355 88.3959206,19.1330231 89.1705171,20.0319062 C90.0023547,20.9670677 90.4465009,22.1851483 90.4122412,23.4373623 C90.4558398,24.6868586 90.0088981,25.9036991 89.1673167,26.8267853 C88.3468624,27.7002839 87.1924188,28.1800154 85.9957996,28.144716 Z M86.0758076,19.3168246 C85.0111842,19.2972589 83.9969848,19.770462 83.3267327,20.5994822 C82.6032317,21.4048974 82.2080325,22.4532149 82.2194219,23.5367683 C82.1921117,24.5720915 82.5726485,25.5765743 83.2787279,26.332962 C83.9954838,27.0613243 84.9721717,27.4737724 85.9930199,27.4792416 C87.013868,27.4846027 87.9948595,27.0825393 88.7192719,26.3618218 C89.4419046,25.5686134 89.8196195,24.5197678 89.7689769,23.4469823 C89.8043374,22.3650099 89.4227219,21.3109099 88.7032703,20.5032829 C88.050034,19.7320831 87.0851174,19.2963649 86.0758076,19.3168246 L86.0758076,19.3168246 Z" id="形状"></path>
                        <path d="M94.3326333,14.6287108 C94.3275567,14.3092139 94.4416822,13.9993227 94.6526653,13.7597102 C94.8434422,13.5241956 95.1308251,13.3884811 95.4335434,13.3909461 C95.7312328,13.3903858 96.014242,13.5204523 96.2080208,13.7468836 C96.639563,14.2467536 96.639563,14.9882215 96.2080208,15.4880914 C96.0139461,15.7181549 95.7277741,15.8497721 95.4271427,15.8472356 C95.1244245,15.8497006 94.8370416,15.7139861 94.6462646,15.4784715 C94.4385743,15.244945 94.3265584,14.9414462 94.3326333,14.6287108 L94.3326333,14.6287108 Z M94.7614761,17.835355 L96.1120112,17.835355 L96.1120112,29.379274 L94.7614761,29.379274 L94.7614761,17.835355 Z" id="形状"></path>
                        <path d="M96.4384438,29.7320049 L94.4350435,29.7320049 L94.4350435,17.5082772 L96.4384438,17.5082772 L96.4384438,29.7320049 Z M95.0879088,29.0521963 L95.7823782,29.0521963 L95.7823782,18.1880858 L95.0879088,18.1880858 L95.0879088,29.0521963 Z M95.4367437,16.1871398 C95.0405945,16.1890991 94.6645596,16.0124844 94.4126413,15.7061432 C94.1474821,15.4103187 94.0014875,15.0263254 94.0030003,14.6287108 C93.9966723,14.2244792 94.1429862,13.832774 94.4126413,13.5320385 C94.6662649,13.2311272 95.0383933,13.0562006 95.4314661,13.0531188 C95.8245389,13.050037 96.1993537,13.2191075 96.4576458,13.5160052 C97.0037061,14.148409 97.0037061,15.086566 96.4576458,15.7189698 C96.2034174,16.018924 95.8294769,16.1904074 95.4367437,16.1871398 Z M95.4367437,13.7308504 C95.226529,13.7277795 95.0267696,13.822527 94.8958896,13.9873819 C94.7393527,14.1637631 94.6548066,14.3927175 94.6590659,14.6287108 C94.6569866,14.8576026 94.7416184,15.0787676 94.8958896,15.2475931 C95.0283485,15.4116905 95.2277086,15.5070417 95.4383438,15.5070417 C95.6489791,15.5070417 95.8483391,15.4116905 95.9807981,15.2475931 C96.2955788,14.8782082 96.2955788,14.3343204 95.9807981,13.9649354 C95.8433922,13.809474 95.6438703,13.7236276 95.4367437,13.7308504 L95.4367437,13.7308504 Z" id="形状"></path>
                        <path d="M102.720672,27.5675201 C102.720672,27.9587306 102.765477,28.189609 102.858286,28.2633618 C103.079566,28.3602773 103.322201,28.3978496 103.562356,28.3723877 L104.362436,28.3723877 L104.362436,29.6197723 C103.940664,29.7056655 103.512464,29.7560785 103.082308,29.7704846 C102.605781,29.8108932 102.136194,29.6356263 101.80218,29.2926946 C101.491445,28.8573864 101.346165,28.3251572 101.392539,27.7919852 L101.392539,19.1083927 L99.5523552,19.1083927 L99.5523552,17.8481815 L101.392539,17.8481815 L101.392539,13.3909461 L102.739874,13.3909461 L102.739874,17.8481815 L105.386539,17.8481815 L105.386539,19.1083927 L102.739874,19.1083927 L102.720672,27.5675201 Z" id="路径"></path>
                        <path d="M103.072707,30.1232155 C102.49933,30.1664347 101.936799,29.9499205 101.539754,29.5331929 C101.174887,29.0344554 101.000077,28.4214087 101.046905,27.8048117 L101.046905,19.448297 L96.2464246,19.448297 L96.2464246,17.5243105 L101.046905,17.5243105 L101.046905,13.0670751 L103.047105,13.0670751 L103.047105,17.5243105 L105.693769,17.5243105 L105.693769,19.448297 L103.047105,19.448297 L103.047105,27.5675201 C103.0398,27.71838 103.053807,27.8695173 103.088709,28.0164502 C103.10471,28.0164502 103.232723,28.0324835 103.562356,28.0324835 L104.688869,28.0324835 L104.688869,29.9147836 L104.420042,29.9660899 C103.976355,30.0576846 103.525529,30.1102597 103.072707,30.1232155 Z M99.8723872,18.7684884 L101.709371,18.7684884 L101.709371,27.8048117 C101.665305,28.2565446 101.778361,28.7096592 102.029403,29.0874694 C102.308962,29.355135 102.691061,29.4874363 103.075908,29.4498202 C103.398057,29.4421336 103.719093,29.4088943 104.036004,29.3504142 L104.036004,28.7090854 L103.568757,28.7090854 C103.25685,28.7483533 102.940587,28.6865491 102.666267,28.53272 C102.477448,28.3820077 102.40064,28.1030296 102.40064,27.5707267 L102.40064,18.7684884 L104.512851,18.7684884 L104.512851,18.1880858 L102.40064,18.1880858 L102.40064,13.7308504 L101.706171,13.7308504 L101.706171,18.1880858 L99.8691869,18.1880858 L99.8723872,18.7684884 Z" id="形状"></path>
                        <polygon id="路径" points="108.580458 13.7821567 115.621162 13.7821567 115.621162 15.3245526 109.988599 15.3245526 109.988599 20.1954451 115.621162 20.1954451 115.621162 21.7410476 109.988599 21.7410476 109.988599 29.3921006 108.580458 29.3921006"></polygon>
                        <path d="M110.315032,29.7320049 L108.254025,29.7320049 L108.254025,13.4422524 L115.934793,13.4422524 L115.934793,15.6644568 L110.30223,15.6644568 L110.30223,19.8555408 L115.934793,19.8555408 L115.934793,22.0777452 L110.30223,22.0777452 L110.315032,29.7320049 Z M108.910091,29.0521963 L109.649365,29.0521963 L109.649365,21.4011433 L115.281928,21.4011433 L115.281928,20.5353494 L109.649365,20.5353494 L109.649365,14.9846483 L115.281928,14.9846483 L115.281928,14.122061 L108.910091,14.122061 L108.910091,29.0521963 Z" id="形状"></path>
                        <path d="M117.243724,23.6971005 C117.209477,22.1046385 117.771156,20.5569694 118.818282,19.3585109 C119.763095,18.2150581 121.16751,17.5532123 122.649065,17.5532123 C124.13062,17.5532123 125.535034,18.2150581 126.479848,19.3585109 C128.574375,21.8538325 128.583812,25.4942271 126.50225,28.000417 C125.546357,29.1322431 124.141634,29.7850033 122.661866,29.7850033 C121.182098,29.7850033 119.777375,29.1322431 118.821482,28.000417 C117.775215,26.8152025 117.212023,25.2791025 117.243724,23.6971005 Z M126.707071,23.7163404 C126.726819,22.5004082 126.298382,21.3198789 125.50375,20.4006703 C124.821288,19.5170303 123.768988,18.9997501 122.653865,18.9997501 C121.538743,18.9997501 120.486443,19.5170303 119.80398,20.4006703 C119.01158,21.3293938 118.58683,22.5171657 118.610261,23.7387869 C118.57758,24.9381413 118.987833,26.1073867 119.762376,27.0223905 C120.460055,27.8886244 121.515821,28.3862288 122.626663,28.3723877 C123.742139,28.3770292 124.800261,27.877551 125.506951,27.0127706 C126.303437,26.1024681 126.731498,24.9266924 126.707071,23.7163404 L126.707071,23.7163404 Z" id="形状"></path>
                        <path d="M122.658666,30.1232155 C121.077571,30.1384905 119.57386,29.4387489 118.565457,28.2184688 C117.473267,26.9696057 116.885534,25.3572945 116.917292,23.6971005 C116.882115,22.01725 117.473187,20.3845896 118.575058,19.1180126 C119.581956,17.9054274 121.074767,17.2041396 122.649065,17.2041396 C124.223363,17.2041396 125.716174,17.9054274 126.723072,19.1180126 C128.926725,21.7470758 128.934812,25.580093 126.742274,28.2184688 C125.738596,29.4394865 124.237307,30.1397433 122.658666,30.1232155 L122.658666,30.1232155 Z M122.658666,17.8834546 C121.266467,17.8686074 119.943868,18.4922367 119.067907,19.5765627 C118.078999,20.7176147 117.548615,22.1861956 117.579758,23.6971005 C117.551548,25.1893915 118.078602,26.6387971 119.058306,27.7631254 C119.954005,28.8283813 121.273296,29.4431945 122.663466,29.4431945 C124.053637,29.4431945 125.372928,28.8283813 126.268627,27.7631254 C128.235083,25.3873084 128.227004,21.9430922 126.249425,19.5765627 C125.371366,18.4895707 124.044617,17.8656527 122.649065,17.8834546 L122.658666,17.8834546 Z M122.639464,28.7090854 C121.43429,28.7223991 120.288913,28.1839999 119.528753,27.2468556 C118.7004,26.2693233 118.259602,25.0207819 118.290229,23.7387869 C118.267037,22.4342401 118.722554,21.1665428 119.570357,20.1762052 C120.312444,19.2193328 121.454049,18.6595751 122.663466,18.6595751 C123.872884,18.6595751 125.014488,19.2193328 125.756576,20.1762052 C126.600446,21.1549589 127.056017,22.4102546 127.036704,23.7035138 C127.063018,24.997945 126.606563,26.255676 125.756576,27.2308224 C124.989296,28.169711 123.840955,28.7126294 122.629863,28.7090854 L122.639464,28.7090854 Z M122.658666,19.3392708 C121.640973,19.3406499 120.681323,19.8143181 120.060006,20.6219288 C119.317341,21.4859479 118.921562,22.5956331 118.949495,23.7355803 C118.913164,24.8530866 119.294331,25.943959 120.018402,26.7947188 C120.654594,27.5901555 121.622267,28.0459435 122.639464,28.0292768 C123.6665,28.0406754 124.642447,27.5812627 125.289329,26.7818922 C126.028876,25.934374 126.422031,24.8384628 126.390239,23.7131337 C126.413432,22.5799957 126.014038,21.4789201 125.270127,20.6251354 C124.641809,19.8135696 123.674164,19.3388534 122.649065,19.3392708 L122.658666,19.3392708 Z" id="形状"></path>
                        <path d="M130.214621,17.8481815 L131.584358,17.8481815 L131.584358,19.5220498 C131.85617,18.9673052 132.21609,18.4604716 132.650065,18.0213403 C132.958964,17.7182937 133.373082,17.5470316 133.805381,17.5435503 C134.260071,17.5522927 134.703344,17.6877583 135.085509,17.9347609 L134.381438,19.1949721 C134.203107,19.0697583 133.991125,19.0015662 133.773377,18.9993668 C133.304293,19.0376866 132.880786,19.2956212 132.630863,19.6952086 C132.24056,20.2280932 131.970812,20.8397824 131.840384,21.4877227 C131.6697,22.2231131 131.584358,23.5538704 131.584358,25.4799947 L131.584358,29.3921006 L130.214621,29.3921006 L130.214621,17.8481815 Z" id="路径"></path>
                        <path d="M131.910791,29.7320049 L129.888189,29.7320049 L129.888189,17.5082772 L131.910791,17.5082772 L131.910791,18.3644512 C132.065363,18.1494806 132.240037,17.9497652 132.432443,17.7680154 C133.226123,17.0369006 134.266227,17.0433138 135.248725,17.6397497 L135.530353,17.8097018 L134.490249,19.6791754 L134.205421,19.4867767 C133.766977,19.1981787 133.325333,19.3456844 132.886889,19.9132604 C132.528241,20.4084753 132.279452,20.9748237 132.157216,21.5743021 C131.993999,22.2765572 131.910791,23.5912813 131.910791,25.486408 L131.910791,29.7320049 Z M130.544254,29.0521963 L131.257926,29.0521963 L131.257926,25.4799947 C131.257926,23.5047019 131.344334,22.1739445 131.520352,21.4107632 C131.6639,20.7153655 131.955346,20.0591367 132.374837,19.4867767 C132.934893,18.7652818 133.613361,18.5055436 134.250225,18.7524552 L134.627863,18.0758533 C134.059389,17.7541389 133.348833,17.8356907 132.867687,18.2778719 C132.46295,18.6927047 132.125984,19.1688525 131.869187,19.6887953 L131.257926,20.8335673 L131.257926,18.1912925 L130.544254,18.1912925 L130.544254,29.0521963 Z" id="形状"></path>
                        <path d="M146.773077,20.2403381 L145.716972,20.9778663 C144.909735,19.6868391 143.483022,18.917841 141.962996,18.9544738 C140.770502,18.9305822 139.624628,19.4183074 138.813881,20.294851 C137.96355,21.1851803 137.502792,22.3785927 137.533753,23.6105211 C137.504955,24.856444 137.947377,26.0672039 138.772277,26.999944 C139.563727,27.9229568 140.726421,28.4419075 141.940594,28.4140741 C143.468213,28.4140741 144.719539,27.73961 145.694569,26.3906816 L146.750675,27.1763095 C146.241178,28.0003853 145.513253,28.6664706 144.648065,29.100296 C143.767102,29.5495214 142.791443,29.7804474 141.80298,29.7736913 C140.274107,29.803979 138.808695,29.1618142 137.792979,28.0164502 C136.723142,26.8427277 136.149506,25.2988954 136.192819,23.7099271 C136.158693,22.1055538 136.738029,20.5488112 137.812181,19.3585109 C138.872369,18.1611821 140.407811,17.4964665 142.0046,17.5435503 C142.980399,17.5351358 143.941402,17.7827709 144.792079,18.2618386 C145.630134,18.7146173 146.318482,19.4020972 146.773077,20.2403381 L146.773077,20.2403381 Z" id="路径"></path>
                        <path d="M141.809381,30.1232155 C140.188072,30.1512873 138.635084,29.4698537 137.556156,28.2569486 C136.425157,27.020235 135.815113,25.3932996 135.853585,23.7163404 C135.823665,22.0225655 136.438096,20.3808452 137.572157,19.1244259 C138.694874,17.8605071 140.316472,17.1566217 142.0046,17.2004394 C143.034784,17.1937259 144.049145,17.4544456 144.948895,17.9572074 C145.832304,18.4472143 146.558259,19.1790534 147.041904,20.0671793 L147.189119,20.3429507 L145.617762,21.4428297 L145.435344,21.1702649 C144.689435,19.9662282 143.360757,19.2505002 141.946995,19.2911714 C140.842734,19.2644504 139.780457,19.7154373 139.031503,20.5289361 C138.243208,21.3553285 137.819915,22.4647683 137.856986,23.6073145 C137.827569,24.7707397 138.244492,25.9011804 139.021902,26.765859 C139.74881,27.6230393 140.824842,28.1031384 141.946995,28.0709632 C143.377538,28.0709632 144.507251,27.4552875 145.441744,26.1854564 L145.630563,25.9193049 L147.20192,27.0833168 L147.032303,27.3558815 C146.490228,28.2359185 145.714594,28.9475814 144.792079,29.4113405 C143.868644,29.8833305 142.846016,30.1273991 141.809381,30.1232155 L141.809381,30.1232155 Z M142.0046,17.8834546 C140.49881,17.8312206 139.048745,18.4570985 138.052205,19.5893893 C137.030749,20.71731 136.477821,22.1935529 136.506451,23.7163404 C136.469945,25.2200574 137.015885,26.6795414 138.029803,27.7887785 C138.983733,28.8728474 140.367395,29.4785884 141.809381,29.4434069 C142.747865,29.448232 143.673922,29.2283536 144.510451,28.8020781 C145.225619,28.4396474 145.841859,27.9080394 146.305831,27.2532689 L145.764976,26.8524384 C144.866095,28.0576581 143.448555,28.762471 141.946995,28.7507718 C140.64108,28.7775091 139.391363,28.2190221 138.538654,27.2276158 C137.653595,26.2327334 137.175854,24.9398266 137.20092,23.6073145 C137.167524,22.287213 137.659116,21.0079329 138.567457,20.0511461 C139.439401,19.1133585 140.668043,18.5910864 141.946995,18.6145695 C143.46124,18.5740113 144.898049,19.2842381 145.787379,20.5129029 L146.325033,20.1345188 C145.908018,19.4751406 145.331081,18.932366 144.648065,18.5568499 C143.839922,18.1069426 142.929069,17.8749123 142.0046,17.8834546 Z" id="形状"></path>
                        <path d="M158.19822,25.6531535 L159.331133,26.2944823 C158.211021,28.6160927 156.555389,29.775829 154.364236,29.7736913 C152.86778,29.8053226 151.440317,29.1440085 150.49505,27.9811772 C148.453748,25.4636039 148.453748,21.8568443 150.49505,19.3392711 C151.41375,18.1837948 152.813112,17.5176366 154.287429,17.5339304 C155.735097,17.5090165 157.121011,18.1207268 158.079808,19.2077987 C159.10391,20.3237108 159.637297,21.845798 159.679968,23.77406 L150.335034,23.77406 C150.373437,25.1657436 150.767077,26.2848624 151.515952,27.1314164 C152.187879,27.9475426 153.189934,28.418368 154.245825,28.4140741 C156.008134,28.4140741 157.325599,27.4937672 158.19822,25.6531535 Z M158.19822,22.5010222 C158.069092,21.5008139 157.582448,20.5814257 156.828483,19.9132604 C156.130716,19.30216 155.233338,18.968972 154.306631,18.9769203 C152.352302,18.9769203 151.072174,20.1526898 150.466247,22.5042289 L158.19822,22.5010222 Z" id="形状"></path>
                        <path d="M154.364236,30.1232155 C152.773096,30.1525436 151.256346,29.4493948 150.248625,28.2152622 C148.100763,25.5658868 148.100763,21.7705947 150.248625,19.1212193 C151.22948,17.8936055 152.71803,17.1844967 154.287429,17.1972328 C155.825403,17.1725862 157.297299,17.8227187 158.316632,18.9769203 C159.39514,20.1505521 159.961596,21.7634941 160,23.7708533 L160,24.1171709 L150.683868,24.1171709 C150.723934,25.1413555 151.103419,26.1229721 151.762376,26.9069514 C152.375334,27.6482726 153.288262,28.0744411 154.249025,28.0677566 C155.887589,28.0677566 157.084508,27.2276158 157.90379,25.5024412 L158.057406,25.1817768 L159.763176,26.1662165 L159.622362,26.4580212 C158.447845,28.8918641 156.694069,30.1232155 154.364236,30.1232155 Z M154.29703,17.8834546 C152.916336,17.8642966 151.605046,18.4886567 150.747875,19.5733561 C148.815088,21.9610258 148.815088,25.3786623 150.747875,27.766332 C151.629728,28.8590926 152.968556,29.4788725 154.370637,29.4434069 C156.354835,29.4434069 157.836584,28.4621738 158.89909,26.4419879 L158.339034,26.1213235 C157.410941,27.8721513 156.038004,28.7571851 154.255426,28.7571851 C153.109223,28.7636625 152.020047,28.2568061 151.285529,27.3751214 C150.485449,26.4676411 150.059806,25.2651495 150.005401,23.7965065 L150.005401,23.4469823 L159.347135,23.4469823 C159.257526,21.7763207 158.755076,20.4359434 157.855786,19.4547103 C156.960052,18.4290784 155.656895,17.8537109 154.29703,17.8834546 L154.29703,17.8834546 Z M158.585459,22.8409265 L150.050205,22.8409265 L150.159016,22.4144429 C150.79908,19.9068471 152.194419,18.637016 154.319432,18.637016 C155.322467,18.6287838 156.293709,18.9892984 157.049305,19.6503156 C157.862994,20.3724064 158.390104,21.363829 158.534253,22.4433027 L158.585459,22.8409265 Z M150.90469,22.161118 L157.788579,22.161118 C157.622971,21.3890871 157.210621,20.6922237 156.614061,20.1762052 C155.9757,19.6123757 155.151137,19.3061247 154.30023,19.3168246 C152.623262,19.3168246 151.509551,20.249958 150.911091,22.161118 L150.90469,22.161118 Z" id="形状"></path>
                        <path d="M52.9364936,31.4603861 L52.9364936,7.54202712 C52.9532487,6.8107076 52.84501,6.08190615 52.6164616,5.38716223 L52.6420642,5.38716223 C51.9155916,3.18419768 50.4754475,0 45.6237624,0 C42.2122212,0 37.9429943,3.88324611 37.2421242,4.53098823 L24.8728873,15.4752648 L15.239924,6.79167238 C15.239924,6.79167238 11.9115912,3.87362618 8.17681768,3.87041953 C4.24042404,3.87041953 0.0640064006,5.79440604 0.0128012801,12.8073369 L0.0128012801,12.8073369 L0.0128012801,12.9452226 L0.0128012801,12.9452226 C0.0128012801,12.9452226 3.58755876,9.09724955 9.14011401,13.7949833 L9.14011401,13.7949833 C9.60869829,14.1992681 10.056265,14.6273838 10.4810481,15.077641 L17.7777778,21.7634941 L9.04090409,29.4979199 L9.04090409,18.915994 C9.06023726,18.0377798 8.87505571,17.1671339 8.50005001,16.3731252 C7.46634663,14.6383307 5.29972997,11.8004506 0,13.4358391 L0,32.0247555 C0,32.0247555 0,37.129733 4.86768677,38.707402 C9.73537354,40.2850709 14.279828,37.7197555 17.1857186,34.750403 L17.2081208,34.7343698 L24.6808681,28.1030296 L39.0055006,41.2342376 C39.0055006,41.2342376 42.8458846,43.9983649 47.5663566,42.6098879 C52.4148415,41.1861379 52.9076908,34.3784323 52.9076908,34.3784323 C52.9076908,34.3784323 49.7073707,37.7486153 43.9691969,32.6404312 L31.849585,21.7378409 L43.879588,11.0565091 C43.879588,11.3354872 43.8955896,11.6272918 43.8955896,11.9351297 L43.8955896,25.4030352 C43.8955896,25.4030352 43.4027403,31.4603861 52.9364936,31.4603861 Z" id="路径"></path>
                    </g>
                </g>
            </g>
        </g>
    </g>
</svg>